<svg xmlns="http://www.w3.org/2000/svg" width="27" height="24" fill="none"><path fill="red" d="M6 0H3v3h3V0ZM6 3H3v3h3V3ZM9 6H6v3h3V6ZM12 3H9v3h3V3ZM9 0H6v3h3V0ZM3 3H0v3h3V3ZM3 6H0v3h3V6ZM3 9H0v3h3V9ZM12 0H9v3h3V0ZM6 9H3v3h3V9ZM6 12H3v3h3v-3ZM9 9H6v3h3V9ZM9 12H6v3h3v-3ZM9 15H6v3h3v-3ZM12 9H9v3h3V9ZM12 6H9v3h3V6ZM12 15H9v3h3v-3ZM12 12H9v3h3v-3ZM12 18H9v3h3v-3ZM21 0h3v3h-3V0ZM21 3h3v3h-3V3ZM18 3h3v3h-3V3ZM21 6h3v3h-3V6ZM18 6h3v3h-3V6ZM15 3h3v3h-3V3ZM18 0h3v3h-3V0ZM24 3h3v3h-3V3ZM24 6h3v3h-3V6ZM24 9h3v3h-3V9ZM15 0h3v3h-3V0ZM21 9h3v3h-3V9ZM21 12h3v3h-3v-3ZM18 9h3v3h-3V9ZM18 12h3v3h-3v-3ZM18 15h3v3h-3v-3ZM15 9h3v3h-3V9ZM15 6h3v3h-3V6ZM15 15h3v3h-3v-3ZM15 12h3v3h-3v-3ZM15 18h3v3h-3v-3ZM15 3h-3v3h3V3ZM15 9h-3v3h3V9ZM15 6h-3v3h3V6ZM15 15h-3v3h3v-3ZM15 12h-3v3h3v-3ZM15 18h-3v3h3v-3ZM15 21h-3v3h3v-3Z"/></svg>